<?xml version="1.0" encoding="UTF-8" standalone="no"?><svg xmlns="http://www.w3.org/2000/svg" xmlns:xlink="http://www.w3.org/1999/xlink" contentScriptType="application/ecmascript" contentStyleType="text/css" height="221px" preserveAspectRatio="none" style="width:144px;height:221px;background:#FFFFFF;" version="1.1" viewBox="0 0 144 221" width="144px" zoomAndPan="magnify"><defs><filter height="300%" id="f937j12txd76j" width="300%" x="-1" y="-1"><feGaussianBlur result="blurOut" stdDeviation="2.0"/><feColorMatrix in="blurOut" result="blurOut2" type="matrix" values="0 0 0 0 0 0 0 0 0 0 0 0 0 0 0 0 0 0 .4 0"/><feOffset dx="4.0" dy="4.0" in="blurOut2" result="blurOut3"/><feBlend in="SourceGraphic" in2="blurOut3" mode="normal"/></filter></defs><g><!--MD5=[aa7f586532e18719e6cefa70fc650583]
class Object--><rect fill="#FEFECE" filter="url(#f937j12txd76j)" height="62.9819" id="Object" style="stroke:#A80036;stroke-width:1.5;" width="68" x="34.5" y="7"/><ellipse cx="49.5" cy="23" fill="#ADD1B2" rx="11" ry="11" style="stroke:#A80036;stroke-width:1.0;"/><path d="M48.9688,29.9219 Q47.2188,29.9219 46.0781,29.1875 Q44.9531,28.4375 44.3906,27.0938 Q43.8438,25.7344 43.8438,23.9375 Q43.8438,21.9063 44.5,20.4531 Q45.1563,19 46.4375,18.2188 Q47.7188,17.4375 49.5938,17.4375 Q50.4844,17.4375 51.1563,17.625 Q51.8281,17.7969 52.5156,18.1406 L51.7031,20.1563 Q51.0781,19.8438 50.5313,19.7188 Q50,19.5938 49.5156,19.5938 Q48.3438,19.5938 47.6406,20.125 Q46.9375,20.6563 46.6406,21.6094 Q46.3438,22.5625 46.3438,23.8281 Q46.3438,25.8438 47.0625,26.8125 Q47.7813,27.7656 49.375,27.7656 Q49.9688,27.7656 50.5938,27.6094 Q51.2188,27.4531 52.0469,27.0781 L52.0469,29.2969 Q51.3125,29.6094 50.5156,29.7656 Q49.7344,29.9219 48.9688,29.9219 Z " fill="#000000"/><text fill="#000000" font-family="sans-serif" font-size="12" lengthAdjust="spacing" textLength="36" x="63.5" y="27.656">Object</text><line style="stroke:#A80036;stroke-width:1.5;" x1="35.5" x2="101.5" y1="39" y2="39"/><line style="stroke:#A80036;stroke-width:1.5;" x1="35.5" x2="101.5" y1="47" y2="47"/><text fill="#000000" font-family="sans-serif" font-size="11" lengthAdjust="spacing" textLength="40" x="40.5" y="62.7589">equals()</text><!--MD5=[ab8871ed637f40707b866ba6597734bc]
class ArrayList--><rect fill="#FEFECE" filter="url(#f937j12txd76j)" height="77.9638" id="ArrayList" style="stroke:#A80036;stroke-width:1.5;" width="123" x="7" y="130"/><ellipse cx="40.45" cy="146" fill="#ADD1B2" rx="11" ry="11" style="stroke:#A80036;stroke-width:1.0;"/><path d="M39.9188,152.9219 Q38.1688,152.9219 37.0281,152.1875 Q35.9031,151.4375 35.3406,150.0938 Q34.7938,148.7344 34.7938,146.9375 Q34.7938,144.9063 35.45,143.4531 Q36.1063,142 37.3875,141.2188 Q38.6688,140.4375 40.5438,140.4375 Q41.4344,140.4375 42.1063,140.625 Q42.7781,140.7969 43.4656,141.1406 L42.6531,143.1563 Q42.0281,142.8438 41.4813,142.7188 Q40.95,142.5938 40.4656,142.5938 Q39.2938,142.5938 38.5906,143.125 Q37.8875,143.6563 37.5906,144.6094 Q37.2938,145.5625 37.2938,146.8281 Q37.2938,148.8438 38.0125,149.8125 Q38.7313,150.7656 40.325,150.7656 Q40.9188,150.7656 41.5438,150.6094 Q42.1688,150.4531 42.9969,150.0781 L42.9969,152.2969 Q42.2625,152.6094 41.4656,152.7656 Q40.6844,152.9219 39.9188,152.9219 Z " fill="#000000"/><text fill="#000000" font-family="sans-serif" font-size="12" lengthAdjust="spacing" textLength="50" x="58.55" y="150.656">ArrayList</text><line style="stroke:#A80036;stroke-width:1.5;" x1="8" x2="129" y1="162" y2="162"/><text fill="#000000" font-family="sans-serif" font-size="11" lengthAdjust="spacing" textLength="111" x="13" y="177.7589">Object[] elementData</text><line style="stroke:#A80036;stroke-width:1.5;" x1="8" x2="129" y1="184.9819" y2="184.9819"/><text fill="#000000" font-family="sans-serif" font-size="11" lengthAdjust="spacing" textLength="25" x="13" y="200.7408">size()</text><!--MD5=[78ed3d54c6ad96fb6434a4e45aa4b5f0]
reverse link Object to ArrayList--><path codeLine="1" d="M68.5,90.48 C68.5,103.53 68.5,117.35 68.5,129.65 " fill="none" id="Object-backto-ArrayList" style="stroke:#A80036;stroke-width:1.0;"/><polygon fill="none" points="61.5,90.28,68.5,70.28,75.5,90.28,61.5,90.28" style="stroke:#A80036;stroke-width:1.0;"/><!--MD5=[1554726d9b803b77d7349f8399ae50a0]
@startuml diagramName
Object <|- - ArrayList

Object : equals()
ArrayList : Object[] elementData
ArrayList : size()
@enduml

PlantUML version 1.2022.0(Tue Jan 11 17:16:42 CET 2022)
(GPL source distribution)
Java Runtime: OpenJDK Runtime Environment
JVM: OpenJDK 64-Bit Server VM
Default Encoding: UTF-8
Language: en
Country: US
--></g></svg>